<svg version="1.1" xmlns="http://www.w3.org/2000/svg" xmlns:xlink="http://www.w3.org/1999/xlink" width="93.34656" height="24.7" viewBox="0,0,93.34656,24.7"><g transform="translate(-192.49714,-167.65)"><g data-paper-data="{&quot;isPaintingLayer&quot;:true}" fill-rule="nonzero" stroke-linecap="butt" stroke-linejoin="miter" stroke-miterlimit="10" stroke-dasharray="" stroke-dashoffset="0" style="mix-blend-mode: normal"><g><path d="M222.00282,189.9462c-0.8082,0 -1.99789,-0.25495 -3.07628,-1.46901c-0.01781,-0.02015 -0.03538,-0.0403 -0.05319,-0.06069c-0.32899,0.18769 -0.69947,0.32384 -1.10299,0.39883c-0.40516,0.07545 -1.00082,0.18254 -1.78418,0.31986c-0.8014,0.15583 -1.3966,0.22847 -1.87088,0.22847c-1.59531,0 -2.49607,-0.6983 -2.97105,-1.28413c-0.32197,-0.39695 -0.51857,-0.88107 -0.56473,-1.39003c-0.13192,-1.45378 0.61534,-2.70838 1.88283,-3.30076c-0.01851,-0.26925 -0.0396,-0.57434 -0.06373,-0.91927c-0.40656,-0.38126 -0.70627,-0.86936 -0.86561,-1.43034c-0.06514,-0.22917 -0.09819,-0.46632 -0.09819,-0.70463v-0.06209c0,-0.29197 0.04945,-0.57668 0.14177,-0.84382c0.06725,-0.26315 0.17575,-0.51483 0.32244,-0.74541c0.07615,-0.11974 0.1577,-0.23316 0.24417,-0.34047c-0.00188,-0.02062 -0.00375,-0.04147 -0.00516,-0.06209c-0.41804,-0.15677 -0.84897,-0.4075 -1.22062,-0.80891c-0.56356,-0.60925 -0.83844,-1.40526 -0.77353,-2.24205c0.15489,-1.86291 1.67967,-2.73883 2.98278,-2.94083c0.55958,-0.10732 1.58219,-0.26011 3.11986,-0.46608c0.24113,-0.03211 0.4792,-0.03023 0.70908,0.00281c0.14552,0.00656 0.46819,0.01875 1.16438,0.03703c0.04569,0.00117 0.09162,0.00374 0.13708,0.00726c1.66678,0.13263 2.84288,0.44523 3.70076,0.98395c0.01594,0.00985 0.03164,0.01991 0.04734,0.03022c0.3144,0.2071 -0.45851,0.80098 -0.20221,1.05897c0.56815,0.57189 2.0472,0.90145 2.29265,1.67496c0.00258,0.00843 0.00516,0.01664 0.00773,0.02507c0.14997,0.48998 0.19777,1.03363 0.14997,1.70802c-0.03515,0.76134 -0.20175,1.38652 -0.50849,1.90627c-0.17785,0.31493 -0.39203,0.61136 -0.6437,0.89068c0.21464,0.61137 0.37095,1.30521 0.47265,2.09232c0.09608,-0.00726 0.19308,-0.01101 0.29103,-0.01101c1.37785,0 2.54787,0.83655 2.98067,2.13146c0.0171,0.05178 0.0328,0.10357 0.04663,0.1563c0.35384,1.33309 -0.3133,2.49748 -0.53239,2.88014c-0.44405,0.7761 -0.95654,1.35208 -1.56579,1.75887c-0.63152,0.4218 -1.42471,0.6744 -2.42436,0.77235c-0.13333,0.01265 -0.25072,0.01781 -0.36672,0.01781z" fill="#f9a83a" stroke="#ffffff" stroke-width="3.5"/><path d="M209.33989,178.41052v1.24848c0,0.74033 -0.12897,1.79277 -0.40499,3.31211c-0.1135,0.70679 -0.33017,1.43421 -0.6423,2.16421c-0.00517,0.01031 -0.01032,0.01806 -0.01289,0.02838c-0.5546,1.25107 -1.46775,2.3422 -2.71623,3.24245c-1.33103,0.957 -2.70849,1.44195 -4.09885,1.44195c-0.56233,0 -1.09888,-0.0877 -1.60188,-0.25794c-1.78244,-0.57523 -3.19085,-1.66895 -4.18398,-3.25019c-0.2141,-0.34823 -0.42562,-0.77902 -0.68874,-1.40842c-0.00517,-0.01548 -0.01031,-0.02837 -0.01805,-0.04385c-0.32502,-0.81513 -0.49785,-1.46775 -0.54428,-2.05587c-0.00774,-0.1006 -0.03611,-0.34308 -0.12897,-0.81771c-0.03354,-0.17799 -0.05159,-0.35855 -0.05159,-0.53912v-1.10403c-0.1135,-0.43594 -0.12382,-0.90283 -0.01289,-1.36456c0.04128,-0.17799 0.1006,-0.35082 0.17283,-0.51075c0,-0.31471 0.05417,-0.62939 0.15735,-0.92862c0.02838,-0.12897 0.06707,-0.25537 0.1135,-0.38177c0.00258,-0.00258 0.049,-0.13414 0.11349,-0.49785c0.07739,-0.44626 0.22183,-1.02148 0.43851,-1.74633c0.00258,-0.00774 0.00517,-0.01806 0.00774,-0.0258c0.42046,-1.35167 1.26913,-2.63368 2.595,-3.91828c0.01031,-0.01031 0.01806,-0.01806 0.02837,-0.0258c0.67067,-0.63456 1.44453,-1.03696 2.30093,-1.20205c0.15477,-0.02838 0.31212,-0.04386 0.47206,-0.04901c0.09803,-0.00258 0.35854,-0.01805 0.78416,-0.04127c0.01548,0 0.03095,-0.00258 0.04643,-0.00258c1.25622,-0.05159 2.44538,0.21668 3.54684,0.79191c1.2717,0.65004 2.27772,1.62768 2.99224,2.90712c0.33792,0.60619 0.62682,1.34135 0.88477,2.2545c0.3018,1.03438 0.45142,1.94495 0.45142,2.78071z" fill="#f9a83a" stroke="#ffffff" stroke-width="3.5"/><path d="M218.87649,173.69087c0,0.10308 -0.00468,0.20616 -0.01874,0.30926c-0.10308,0.86218 -0.5576,1.81103 -1.476,2.42018c0.04217,0.82 -0.01406,1.88366 -0.16869,3.23782c-0.08435,0.73098 -0.16634,1.45257 -0.24834,2.16948c-0.00469,0.04451 -0.01172,0.08902 -0.01874,0.13354c-0.24131,1.43851 -0.67239,2.58885 -1.31435,3.51663c-0.29988,0.44983 -0.72395,0.8692 -1.29092,1.28154c-0.56697,0.41 -1.10349,0.68411 -1.64234,0.83874c-1.01446,0.30691 -1.91177,0.45685 -2.74583,0.45685c-0.61852,0 -1.19018,-0.082 -1.70326,-0.246c-1.13394,-0.34909 -2.14605,-0.99338 -2.98948,-1.90474c-0.54823,-0.5904 -0.9512,-1.17612 -1.23469,-1.78994c-0.33737,-0.72394 -0.52949,-1.71966 -0.62086,-3.21439c-0.00234,-0.01639 -0.00234,-0.03046 -0.00234,-0.04685c-0.04451,-0.99337 -0.11714,-2.38736 -0.21789,-4.16325c-0.90669,-0.46153 -1.54862,-1.2792 -1.76651,-2.28897c-0.08902,-0.40766 -0.07732,-0.82937 0.03514,-1.23234c0.31394,-1.13394 1.14331,-2.02657 2.27725,-2.44828c0.30223,-0.1148 0.65366,-0.18977 1.29795,-0.27177c0.21788,-0.04921 0.47559,-0.09372 0.78719,-0.13589c0.04685,-0.00703 0.09372,-0.01172 0.14057,-0.0164c0.26709,-0.02108 0.58572,-0.02578 1.11285,-0.00937h0.64194c0.62085,-0.03514 1.26514,0.05154 1.92817,0.25303c0.51543,0.15463 0.96291,0.43344 1.31199,0.80125c0.00937,-0.00234 0.01875,-0.00469 0.03045,-0.00703c0.14759,-0.04217 0.36783,-0.09372 0.96057,-0.2132c0.04451,-0.00937 0.08903,-0.0164 0.13354,-0.02343c0.10308,-0.01875 0.54354,-0.0984 2.39908,-0.45452c0.82703,-0.16635 1.65405,-0.12886 2.35925,0.12417c0.48497,0.17103 1.14331,0.55291 1.61657,1.40337c0.18508,0.33269 0.4264,0.84812 0.4264,1.52051z" fill="#f9a83a" stroke="#ffffff" stroke-width="3.5"/><path d="M279.93289,191.75c-0.8,0.1 -1.3,0.1 -1.5,0.2c-0.4,0.2 -1.3,0.4 -2.4,0.4c-1.4,0 -2.7,-0.5 -3.8,-1.3h-0.8c-0.3,0 -0.5,0 -0.8,-0.1c-1.1,0.4 -2.1,0.4 -2.7,0.4h-0.2c-1.4,0.1 -2.8,-0.2 -4,-0.8c-0.6,0.2 -1.1,0.3 -1.7,0.3l-3.7,0.1c-1.7,0 -3.2,-0.6 -4.4,-1.7c-0.5,0 -1,-0.1 -1.4,-0.2c-0.6,0.7 -1.4,1.3 -2.4,1.8c-1.9,0.9 -4,1 -6,0.2c-0.2,-0.1 -0.5,-0.2 -0.7,-0.3l-2.3,0.3h-0.7c-0.3,0.1 -0.5,0.3 -0.7,0.4c-1.5,0.7 -2.9,0.7 -3.5,0.7h-0.5c-1.7,0 -3.4,-0.5 -4.7,-1.4c-0.4,0.1 -0.9,0.2 -1.3,0.2c-0.9,0.6 -2,1 -3.2,1.1h-0.4c-3.3,0 -6,-2.5 -6.3,-5.8v-0.1c0,-0.5 -0.1,-1.6 0,-2.8c0,-0.6 0.1,-1.5 0.1,-1.7c0,-0.8 0.2,-1.6 0.5,-2.4c-0.2,-0.8 -0.1,-1.6 0,-2.4v-0.3c0.1,-0.7 0.3,-2.1 1,-3.5c1.3,-2.4 3.7,-3.9 6.4,-3.9c0.9,-0.5 1.8,-0.7 2.8,-0.7h0.3c2,0.1 3.8,1.1 4.9,2.7c0.9,-0.8 2,-1.3 3.2,-1.5c2.4,-0.3 4.4,-0.4 6.1,-0.1c0.9,-0.8 2.1,-1.4 3.3,-1.5l2.6,-0.4h0.8c1.5,0 3,0.6 4.2,1.6h0.2l3.8,-0.1c1.6,0 3,-0.1 3.3,-0.1h0.5c1.4,0 2.9,0.5 4,1.4c1.1,-0.8 2.4,-1.2 3.8,-1.2h1.3c1,-0.6 2.1,-1 3.3,-1l3.2,-0.1h0.1c3.4,0 6.2,2.8 6.3,6.2c0,1.6 -0.5,3 -1.5,4.2v2.9c0.9,1 1.4,2.3 1.5,3.7c0.2,3.4 -2.4,6.3 -5.9,6.6z" fill="#ffffff" stroke="none" stroke-width="1"/><path d="M279.73289,188.15c-1.3,0.1 -2.1,0.2 -2.3,0.3l-0.1,0.1c-0.3,0.1 -0.7,0.3 -1.2,0.3c-0.6,0 -1.3,-0.2 -1.8,-0.7c-0.2,-0.2 -0.4,-0.4 -0.5,-0.6h-2.3c-0.4,0 -0.8,-0.1 -1.1,-0.3c-0.1,0.1 -0.3,0.1 -0.4,0.2c-0.8,0.4 -1.5,0.4 -2,0.4h-0.5c-1.5,0 -2.7,-0.5 -3.5,-1.4c-0.5,0.5 -1.2,0.8 -1.9,0.8l-3.7,0.1c-1.3,0 -2.5,-1 -2.7,-2.2c-0.5,0.3 -1,0.5 -1.6,0.5c-0.6,0 -1.2,-0.2 -1.7,-0.5c-0.1,-0.1 -0.2,-0.2 -0.3,-0.2c-0.3,0.2 -0.7,0.2 -1.1,0.2h-0.3c-0.4,1.2 -1.1,2 -2.2,2.5c-0.5,0.2 -1.1,0.4 -1.6,0.4c-0.5,0 -1.1,-0.1 -1.6,-0.3c-0.5,-0.2 -0.9,-0.5 -1.2,-0.8c-0.2,0.1 -0.4,0.1 -0.6,0.2l-2.9,0.4h-0.4c-0.3,0 -0.5,0 -0.8,-0.1c-0.4,0.4 -0.9,0.6 -1.3,0.8c-0.8,0.4 -1.5,0.4 -2,0.4h-0.5c-1.8,0 -3.2,-0.8 -4,-1.9c-0.8,0.5 -1.8,0.8 -2.7,0.8h-0.6c0,0.1 -0.1,0.1 -0.1,0.2c-0.5,0.5 -1.2,0.9 -1.9,0.9h-0.2c-1.4,0 -2.6,-1.1 -2.7,-2.6v-0.1c0,-0.5 -0.1,-1.4 0,-2.4c0,-0.7 0.1,-1.8 0.1,-1.8c0,-0.7 0.3,-1.3 0.7,-1.8c-0.4,-0.8 -0.5,-1.7 -0.3,-2.7v-0.2c0.1,-0.6 0.2,-1.5 0.6,-2.4c0.7,-1.3 2,-2 3.5,-2h0.7c0.5,-0.4 1.1,-0.7 1.8,-0.7c1.5,0 2.7,1.3 2.7,2.8v1.1c0.5,-0.2 1.1,-0.3 1.7,-0.3c0.3,0 0.5,0 0.8,0.1c0.4,-0.5 1,-0.8 1.6,-0.9c0.1,-0.2 0.2,-0.3 0.3,-0.5c0.4,-0.6 1.1,-1 1.8,-1.1c0.6,-0.1 1.8,-0.2 3.2,-0.2c1.6,0 2.9,0.2 3.9,0.7c0.3,-1.1 1.1,-1.9 2.3,-2.1l2.6,-0.4h0.4c0.8,0 1.5,0.3 2,0.9c0.2,0.2 0.5,0.6 0.6,0.9l0.1,0.3c0.5,-0.3 1,-0.5 1.6,-0.5l3.9,-0.1c1.9,0 3.6,-0.1 3.6,-0.2h0.2c0.7,0 1.5,0.3 2,0.8c0.4,0.4 0.7,0.9 0.8,1.5h0.2c0.3,0 0.5,0 0.8,0.1c0.4,-0.5 1,-0.8 1.6,-0.9c0.5,-0.7 1.4,-1.3 2.4,-1.3h2.6c0.5,-0.6 1.2,-1 2.1,-1h3.2c1.5,0 2.7,1.2 2.8,2.7c0,1.1 -0.6,2.1 -1.5,2.5v6.1c0.8,0.4 1.4,1.3 1.5,2.3c0.1,1.5 -1.1,2.8 -2.6,2.9z" fill="#f9a83a" stroke="none" stroke-width="1"/><path d="M253.33289,179.45l-2,0.3l0.7,-3.6z" fill="#f9a83a" stroke="none" stroke-width="1"/><path d="M228.13289,179.65c1.2,0.2 3.7,0.6 3.7,3.1c0,0.7 -0.4,1.5 -1,2c-0.7,0.6 -1.6,0.9 -2.5,0.7c-0.7,-0.1 -1.3,-0.4 -1.7,-0.7v1.1c0,0.3 -0.3,0.6 -0.6,0.6c-0.3,0 -0.6,-0.3 -0.6,-0.6c0,-0.1 -0.1,-1 0,-2.2c0.1,-0.7 0.1,-1.9 0.1,-1.9c0,-0.3 0.3,-0.6 0.6,-0.6c0.3,0 0.6,0.3 0.6,0.6v0.2c0,0.3 0.1,0.8 0.2,1.2c0.2,0.4 0.8,0.7 1,0.8c0.2,0 0.3,0.1 0.5,0.1c0.6,0.1 1.2,0 1.6,-0.4c0.4,-0.3 0.6,-0.7 0.6,-1.1c0,-1 -1.1,-1.3 -2.7,-1.6c-1.5,-0.3 -2.1,-1.5 -1.9,-3.4v-0.2c0.1,-1 0.3,-2.7 2.2,-2.4c0.7,0 1.3,0.5 1.8,1v-1.1c0,-0.3 0.3,-0.6 0.6,-0.6c0.3,0 0.6,0.3 0.6,0.6c0,0.1 -0.2,3.9 -0.2,3.9c-0.1,0.3 -0.4,0.6 -0.7,0.5c-0.3,-0.1 -0.5,-0.3 -0.5,-0.5v-0.4c-0.1,-0.3 -0.1,-0.6 -0.3,-1c-0.2,-0.6 -0.6,-0.9 -0.8,-1.1c-0.2,-0.2 -0.4,-0.3 -0.6,-0.3c-0.6,0 -0.7,0.3 -0.9,1.5v0.2c-0.2,1.4 0.2,1.9 0.9,2M244.93289,177.95c0.3,-0.4 0.5,-0.8 0.5,-1v-0.2c-0.3,-0.5 -1.7,-0.6 -3.3,-0.6v2.8c0.6,-0.1 1.2,-0.2 1.6,-0.4l0.3,-0.1c0.1,0 0.4,-0.1 0.5,-0.2c0.2,-0.1 0.3,-0.2 0.4,-0.3M248.43289,183.35c0.3,0.1 0.5,0.4 0.1,0.6c-0.2,0.9 -0.6,1.2 -1.1,1.5c-0.6,0.3 -1.1,0.1 -1.5,0c-0.5,-0.2 -0.8,-0.7 -0.9,-0.9c-0.2,-0.5 -0.3,-1.7 -0.3,-2c-0.1,-1.5 -0.3,-2.1 -0.5,-2.4c-0.1,-0.2 -0.3,-0.3 -0.5,-0.3h-0.2c-0.5,0.2 -1,0.3 -1.6,0.4v3.5l0.9,-0.1c0.3,-0.1 0.7,0.2 0.7,0.5c0.1,0.3 -0.2,0.7 -0.5,0.7l-2.9,0.4c-0.3,0.1 -0.7,-0.2 -0.7,-0.5c-0.1,-0.3 0.2,-0.7 0.5,-0.7l0.8,-0.1v-3.5h-0.3c-0.3,0 -0.6,-0.3 -0.6,-0.6c0,-0.3 0.3,-0.6 0.6,-0.6h0.3v-2.8c-0.3,0 -0.6,0.1 -0.9,0.1c-0.3,0.1 -0.7,-0.2 -0.7,-0.5c-0.1,-0.3 0.2,-0.7 0.5,-0.7c1.4,-0.2 5.7,-0.7 6.7,1c0.4,0.7 0.2,1.5 -0.5,2.5c0,0 -0.3,0.3 -0.6,0.5c0.5,0.5 0.9,1.5 0.9,3.3c0,0.5 0.1,1.3 0.2,1.5c0.1,0.1 0.2,0.3 0.2,0.3c0.3,0.1 0.5,0.2 0.6,0.1c0.1,-0.1 0.3,-0.1 0.5,-0.8c0.1,-0.3 0.5,-0.5 0.8,-0.4M270.23289,181.45c0.3,0 0.6,0.2 0.6,0.4v1c-0.1,0.2 -0.2,0.9 -0.4,1.3c-0.2,0.3 -0.3,0.5 -0.5,0.7c-0.3,0.3 -0.6,0.5 -0.9,0.6c-0.4,0.2 -0.8,0.2 -1.2,0.2h-0.3c-2.2,0 -2.9,-1.8 -3,-2.7v-2.8c0.1,-1.5 0.6,-2.4 1.3,-2.9c0.9,-0.6 2.1,-0.1 2.4,0.1c0.3,0.2 0.6,0.3 0.8,0.5v-1.1c0,-0.3 0.3,-0.6 0.6,-0.6c0.3,0 0.6,0.3 0.6,0.6v2.7c0,0.3 -0.1,0.5 -0.4,0.6c-0.3,0 -0.6,-0.1 -0.7,-0.3c-0.1,0 -0.6,-0.9 -1.4,-1.2c-0.7,-0.2 -1.1,-0.3 -1.4,-0.1c-0.4,0.3 -0.6,1 -0.7,2v2.6c0,0.3 0.2,1.6 1.8,1.5h0.4c0.4,0 0.5,0 0.7,-0.1c0.2,-0.1 0.4,-0.2 0.5,-0.3c0.2,-0.2 0.3,-0.3 0.4,-0.5c0.1,-0.1 0.2,-0.5 0.2,-0.8v-0.8c0,-0.3 0.3,-0.6 0.6,-0.6M280.13289,185.45c0,0.3 -0.2,0.6 -0.5,0.8c-1.4,0.1 -2.6,0.2 -2.9,0.4c-0.4,0.1 -0.7,0.2 -0.9,0c-0.3,-0.2 -0.3,-0.6 -0.1,-0.8c0.3,-0.4 0.9,-0.4 1.7,-0.6v-4.6l-3.6,0.6v3.1h1c0.3,0 0.6,0.3 0.6,0.6c0,0.3 -0.3,0.6 -0.6,0.6l-3.3,-0.1c-0.3,0 -0.6,-0.3 -0.6,-0.6c0,-0.3 0.3,-0.6 0.6,-0.6h1v-8.1h-1c-0.3,0 -0.6,-0.3 -0.6,-0.6c0,-0.3 0.3,-0.6 0.6,-0.6h3.2c0.3,0 0.6,0.3 0.6,0.6c0,0.3 -0.3,0.6 -0.6,0.6h-1v3.8l3.6,-0.6v-4.2h-1c-0.3,0 -0.6,-0.3 -0.6,-0.6c0,-0.3 0.3,-0.6 0.6,-0.6l3.2,-0.1c0.3,0 0.6,0.3 0.6,0.6c0,0.3 -0.3,0.6 -0.6,0.6h-0.9c0.1,6.8 0.1,8.9 0.1,9.9c0.3,-0.1 0.6,-0.1 0.8,-0.1c0.3,0 0.6,0.3 0.6,0.6" fill="#ffffff" stroke="none" stroke-width="1"/><path d="M253.33289,179.45l-1.3,-3.3l-0.7,3.6zM256.63289,180.75c0.3,-0.1 0.6,0.1 0.7,0.3c0.1,0.3 -0.1,0.7 -0.4,0.8c-1.1,0.4 -2.2,0.9 -2.5,1.3c-0.2,0.2 -0.6,0.3 -0.9,0.1c-0.2,-0.2 -0.3,-0.5 -0.1,-0.8c0.3,-0.3 0.5,-0.4 1,-0.7l-0.6,-1.5l-2.8,0.5l-0.1,0.9c0.4,0 0.6,0.3 0.6,0.6c0,0.4 -0.3,0.6 -0.6,0.6l-3,-0.1c-0.4,0 -0.6,-0.3 -0.6,-0.6c0,-0.4 0.3,-0.6 0.6,-0.6l1.8,0.1c0.3,-1.4 1.2,-5.9 1.4,-7c-0.8,0.1 -1.8,0.2 -1.8,0.2c-0.4,0.1 -0.7,-0.2 -0.7,-0.5c-0.1,-0.4 0.2,-0.7 0.5,-0.7l2.6,-0.3c0.2,0 0.4,0.1 0.5,0.2c0.1,0 0.2,0.2 0.2,0.3l2.3,5.5l0.8,1.9c0.6,-0.3 0.9,-0.4 1.1,-0.5" fill="#ffffff" stroke="none" stroke-width="1"/><path d="M263.83289,174.65c0.2,0 0.4,0.1 0.4,0.3c0.2,0.2 0.2,0.3 0.2,0.5c-0.1,0.8 -0.1,2.2 -0.1,2.2c0,0.2 -0.1,0.5 -0.3,0.6c-0.3,0.2 -0.6,0.1 -0.8,-0.2c0,-0.1 -0.1,-0.3 -0.1,-0.9v-1.2c-0.6,0 -1.5,0.1 -2.5,0.1v7.9h1.2c0.3,0 0.6,0.3 0.6,0.6c0,0.3 -0.3,0.6 -0.6,0.6l-3.7,0.1c-0.3,0 -0.6,-0.3 -0.6,-0.6c0,-0.3 0.3,-0.6 0.6,-0.6h1.3v-7.9h-2.6c0.2,0.8 0.4,2.4 0.4,2.4c0,0.3 -0.2,0.6 -0.5,0.6c-0.3,0.1 -0.7,-0.2 -0.7,-0.5l-0.5,-3c-0.1,-0.2 0,-0.4 0.1,-0.5c0.2,-0.1 0.3,-0.2 0.5,-0.2l3.9,-0.1c2,-0.1 3.8,-0.2 3.8,-0.2M238.33289,182.05c0.3,0 0.6,0.3 0.6,0.5v1c-0.1,0.2 -0.2,0.9 -0.4,1.3c-0.2,0.3 -0.3,0.5 -0.5,0.7c-0.3,0.3 -0.6,0.5 -0.9,0.6c-0.4,0.2 -0.8,0.2 -1.2,0.2h-0.3c-2.3,0 -3,-1.8 -3.1,-2.7v-2.8c0.1,-1.5 0.6,-2.4 1.3,-2.9c1,-0.5 2.1,-0.1 2.5,0.1c0.3,0.1 0.6,0.3 0.8,0.5v-1.1c0,-0.3 0.3,-0.6 0.6,-0.6c0.3,0 0.6,0.3 0.6,0.6v2.7c0,0.3 -0.1,0.5 -0.4,0.6c-0.3,0 -0.6,-0.1 -0.7,-0.3c0,0 -0.6,-0.9 -1.4,-1.2c-0.7,-0.2 -1.1,-0.3 -1.4,-0.1c-0.4,0.3 -0.6,1 -0.7,2v2.6c0,0.3 0.2,1.5 1.8,1.5h0.4c0.4,0 0.5,0 0.7,-0.1c0.2,-0.1 0.4,-0.2 0.5,-0.3c0.2,-0.2 0.3,-0.3 0.4,-0.5c0.1,-0.2 0.2,-0.6 0.2,-0.8v-0.9c0,-0.3 0.3,-0.6 0.6,-0.6" fill="#ffffff" stroke="none" stroke-width="1"/><path d="M223.1756,184.22559c0.04268,0.16119 -0.02949,0.40573 -0.21724,0.73324c-0.18739,0.3277 -0.38557,0.56123 -0.59457,0.70081c-0.209,0.13958 -0.53322,0.23099 -0.97228,0.27384c-0.3537,0.03224 -0.68322,-0.12364 -0.98839,-0.46727c-0.30553,-0.34363 -0.47936,-0.72499 -0.52222,-1.1439c-0.11814,-1.18145 -0.26816,-2.03009 -0.45023,-2.54572c-0.02161,-0.12877 -0.08042,-0.31927 -0.17695,-0.57186c-0.09635,-0.25223 -0.31597,-0.45921 -0.65886,-0.6204c-0.25735,-0.09653 -0.51966,-0.19856 -0.78745,-0.30608c-0.04286,-0.01063 -0.09635,-0.01063 -0.16064,0c-0.15001,0.04286 -0.46104,0.12877 -0.93234,0.25772v0.30608v1.25674c0,0.02161 0.00806,0.12364 0.02418,0.30608c0.01612,0.18281 0.02418,0.31176 0.02418,0.38667c0.02143,0.18281 0.04854,0.66619 0.08059,1.44998c0.07492,0.03242 0.15551,0.03242 0.2416,0c0.28996,-0.11814 0.54769,-0.14488 0.77335,-0.08041c0.16119,0.05385 0.2416,0.18281 0.2416,0.38667c0,0.30095 -0.15844,0.48082 -0.47533,0.53962c-0.31689,0.05917 -0.78141,0.14251 -1.39356,0.24985c-0.49419,0.09653 -0.85944,0.14489 -1.09555,0.14489c-0.36524,0 -0.61783,-0.0859 -0.75723,-0.25772c-0.03224,-0.35462 0.1502,-0.56912 0.54768,-0.64458c0.32238,-0.03224 0.64458,-0.06979 0.96659,-0.11283c0.04286,-0.05348 0.06466,-0.11265 0.06466,-0.17712c-0.01099,-0.2471 -0.06997,-1.13329 -0.17731,-2.65855c-0.03224,-0.36506 -0.04305,-0.64458 -0.03224,-0.83782c-0.19343,-0.01063 -0.32238,-0.02674 -0.38667,-0.04836c-0.16119,-0.05367 -0.2634,-0.1557 -0.30607,-0.30608v-0.04854c0.02125,-0.01063 0.03736,-0.06448 0.04835,-0.16101c0.1502,-0.23629 0.34363,-0.32751 0.58011,-0.27402c0.02125,-0.06447 0.01612,-0.23611 -0.0163,-0.51544c-0.09653,-1.02026 -0.15588,-1.83666 -0.17713,-2.449c-0.04305,-0.04268 -0.13445,-0.05366 -0.27402,-0.03223c-0.21486,0.04305 -0.32769,0.06447 -0.33831,0.06447c-0.58011,0 -0.85944,-0.1394 -0.83783,-0.41891c0.02143,-0.25772 0.2416,-0.41323 0.66052,-0.46726c0.37587,-0.07492 1.16533,-0.19325 2.36858,-0.35444c-0.05385,0.01081 0.32751,0.02675 1.14391,0.04836c0.94498,0.07529 1.60568,0.23116 1.98173,0.46727c0.40811,0.26871 0.68194,0.62296 0.82152,1.06349c0.04268,0.13976 0.05367,0.34912 0.03224,0.62846c-0.01081,0.27934 -0.05385,0.4779 -0.12877,0.59604c-0.24728,0.45115 -0.7466,0.85394 -1.49853,1.20856c0,0.03224 0.00531,0.05385 0.01612,0.06447c0.26853,0.19343 0.45115,0.36524 0.54787,0.51544c0.27897,0.45115 0.46727,1.10654 0.5638,1.96561c0.13958,1.17102 0.25223,1.90663 0.33832,2.20739c0.01081,0.06447 0.0859,0.1665 0.22548,0.30607c0.13958,0.13995 0.25241,0.21505 0.3385,0.22548c0.33264,0.02161 0.53706,-0.12877 0.61234,-0.45115c-0.01099,-0.11814 0.03737,-0.27916 0.14489,-0.48339c0.15039,-0.13958 0.33282,-0.20954 0.54787,-0.20954c0.21523,0.00036 0.3548,0.09726 0.41947,0.29032zM219.95325,178.57036c0.09653,-0.09653 0.14489,-0.24691 0.14489,-0.45115c0,-0.54768 -0.19343,-0.93967 -0.57992,-1.17615c-0.38667,-0.23611 -1.22468,-0.34363 -2.51366,-0.32219c-0.09653,0 -0.2416,0.04286 -0.43503,0.12877c0.03242,0.16119 0.03242,0.29546 0,0.40279c-0.01081,0.16119 -0.01081,0.31157 0,0.45115c0.00531,0.28996 0.0163,0.65008 0.03242,1.07961c0.05348,0.63377 0.08042,0.98839 0.08042,1.06331c0.18244,-0.01063 0.45115,-0.06447 0.80558,-0.161c0.05348,-0.05367 0.12877,-0.11284 0.22549,-0.17731c0.07492,-0.02143 0.26834,-0.03224 0.57992,-0.03224c0.59091,0.00018 1.14427,-0.26816 1.6599,-0.80559z" fill="#faa83b" stroke="none" stroke-width="1"/><path d="M221.25038,188.02717c-0.63175,0 -1.56172,-0.19929 -2.40467,-1.1483c-0.01392,-0.01576 -0.02766,-0.0315 -0.04158,-0.04744c-0.25717,0.14672 -0.54676,0.25314 -0.86218,0.31175c-0.31671,0.05898 -0.78233,0.14269 -1.39467,0.25003c-0.62644,0.12181 -1.0917,0.17859 -1.46244,0.17859c-1.24703,0 -1.95113,-0.54585 -2.32242,-1.00378c-0.25168,-0.31029 -0.40536,-0.68872 -0.44145,-1.08657c-0.10313,-1.13639 0.481,-2.1171 1.47178,-2.58015c-0.01447,-0.21046 -0.03095,-0.44895 -0.04982,-0.71858c-0.3178,-0.29802 -0.55208,-0.67956 -0.67664,-1.11808c-0.05092,-0.17914 -0.07675,-0.36451 -0.07675,-0.55079v-0.04854c0,-0.22823 0.03865,-0.45079 0.11082,-0.6596c0.05257,-0.2057 0.13738,-0.40243 0.25205,-0.58267c0.05953,-0.0936 0.12328,-0.18226 0.19087,-0.26615c-0.00146,-0.01612 -0.00293,-0.03242 -0.00403,-0.04854c-0.32677,-0.12254 -0.66363,-0.31854 -0.95414,-0.63231c-0.44053,-0.47625 -0.65539,-1.09848 -0.60465,-1.75258c0.12107,-1.45621 1.31297,-2.14091 2.33158,-2.2988c0.43741,-0.08389 1.23678,-0.20332 2.43875,-0.36433c0.18849,-0.02509 0.37458,-0.02363 0.55427,0.0022c0.11375,0.00513 0.36598,0.01466 0.91018,0.02894c0.03572,0.00091 0.07162,0.00293 0.10715,0.00568c0.81592,0.06492 1.4193,0.11038 2.04717,0.34429c0.09868,0.03677 0.19798,0.07819 0.2988,0.12507c0.17601,0.08184 0.35666,0.18035 0.54686,0.29979c0.01245,0.0077 0.02473,0.01556 0.037,0.02362c0.79056,0.52076 1.35565,1.25967 1.63407,2.13706c0.00202,0.0066 0.00403,0.013 0.00605,0.0196c0.11723,0.38301 0.1546,0.80797 0.11723,1.33514c-0.02748,0.59512 -0.15771,1.08382 -0.39748,1.49009c-0.13903,0.24618 -0.30645,0.47789 -0.50317,0.69624c0.16779,0.47789 0.28996,1.02026 0.36946,1.63553c0.0751,-0.00568 0.15093,-0.00861 0.2275,-0.00861c1.07704,0 1.99162,0.65392 2.32994,1.66612c0.01337,0.04048 0.02564,0.08096 0.03645,0.12217c0.27659,1.04206 -0.2449,1.95224 -0.41617,2.25136c-0.34711,0.60666 -0.7477,1.05689 -1.22395,1.37488c-0.49364,0.32971 -1.11368,0.52717 -1.89509,0.60374c-0.10423,0.00989 -0.19599,0.01392 -0.28666,0.01392z" fill="#f9a83a" stroke="none" stroke-width="1"/><path d="M223.1765,184.22559c0.03943,0.16119 -0.02725,0.40573 -0.20072,0.73324c-0.17314,0.3277 -0.35626,0.56123 -0.54937,0.70081c-0.19311,0.13958 -0.49267,0.23099 -0.89835,0.27384c-0.32681,0.03224 -0.63127,-0.12364 -0.91324,-0.46727c-0.2823,-0.34363 -0.44291,-0.72499 -0.48251,-1.1439c-0.10916,-1.18145 -0.24777,-2.03009 -0.416,-2.54572c-0.01997,-0.12877 -0.0743,-0.31927 -0.16349,-0.57186c-0.08902,-0.25223 -0.29194,-0.45921 -0.60877,-0.6204c-0.23779,-0.09653 -0.48015,-0.19856 -0.72758,-0.30608c-0.0396,-0.01063 -0.08902,-0.01063 -0.14843,0c-0.13861,0.04286 -0.42598,0.12877 -0.86145,0.25772v0.30608v1.25674c0,0.02161 0.00745,0.12364 0.02234,0.30608c0.01489,0.18281 0.02234,0.31176 0.02234,0.38667c0.0198,0.18281 0.04485,0.66619 0.07447,1.44998c0.06922,0.03242 0.14369,0.03242 0.22323,0c0.26791,-0.11814 0.50604,-0.14488 0.71455,-0.08041c0.14893,0.05385 0.22323,0.18281 0.22323,0.38667c0,0.30095 -0.1464,0.48082 -0.43919,0.53962c-0.29279,0.05917 -0.72199,0.14251 -1.2876,0.24985c-0.45662,0.09653 -0.79409,0.14489 -1.01224,0.14489c-0.33747,0 -0.57086,-0.0859 -0.69965,-0.25772c-0.02979,-0.35462 0.13878,-0.56912 0.50604,-0.64458c0.29787,-0.03224 0.59557,-0.06979 0.8931,-0.11283c0.0396,-0.05348 0.05974,-0.11265 0.05974,-0.17712c-0.01015,-0.2471 -0.06465,-1.13329 -0.16383,-2.65855c-0.02979,-0.36506 -0.03977,-0.64458 -0.02979,-0.83782c-0.17872,-0.01063 -0.29787,-0.02674 -0.35727,-0.04836c-0.14893,-0.05367 -0.24337,-0.1557 -0.2828,-0.30608v-0.04854c0.01963,-0.01063 0.03452,-0.06448 0.04468,-0.16101c0.13878,-0.23629 0.3175,-0.32751 0.536,-0.27402c0.01963,-0.06447 0.01489,-0.23611 -0.01507,-0.51544c-0.08919,-1.02026 -0.14402,-1.83666 -0.16366,-2.449c-0.03977,-0.04268 -0.12423,-0.05366 -0.25319,-0.03223c-0.19852,0.04305 -0.30277,0.06447 -0.31259,0.06447c-0.536,0 -0.79409,-0.1394 -0.77412,-0.41891c0.0198,-0.25772 0.22323,-0.41323 0.61029,-0.46726c1.24776,-0.26916 1.97356,-0.34252 3.24541,-0.30608c0.87313,0.07529 1.48359,0.23116 1.83105,0.46727c0.37707,0.26871 0.63009,0.62296 0.75905,1.06349c0.03943,0.13976 0.04959,0.34912 0.02979,0.62846c-0.00998,0.27934 -0.04976,0.4779 -0.11898,0.59604c-0.22848,0.45115 -0.68984,0.85394 -1.38458,1.20856c0,0.03224 0.00491,0.05385 0.01489,0.06447c0.24811,0.19343 0.41685,0.36524 0.50621,0.51544c0.25776,0.45115 0.43174,1.10654 0.52093,1.96561c0.12896,1.17102 0.23305,1.90663 0.3126,2.20739c0.00998,0.06447 0.07937,0.1665 0.20834,0.30607c0.12896,0.13995 0.23322,0.21505 0.31276,0.22548c0.30735,0.02161 0.49622,-0.12877 0.56578,-0.45115c-0.01015,-0.11814 0.03452,-0.27916 0.13387,-0.48339c0.13895,-0.13958 0.30751,-0.20954 0.50621,-0.20954c0.19886,0.00036 0.32783,0.09726 0.38757,0.29032zM220.19917,178.57036c0.08919,-0.09653 0.13387,-0.24691 0.13387,-0.45115c0,-0.54768 -0.17872,-0.93967 -0.53582,-1.17615c-0.35727,-0.23611 -1.13156,-0.34363 -2.32253,-0.32219c-0.08919,0 -0.22323,0.04286 -0.40195,0.12877c0.02995,0.16119 0.02995,0.29546 0,0.40279c-0.00998,0.16119 -0.00998,0.31157 0,0.45115c0.00491,0.28996 0.01506,0.65008 0.02995,1.07961c0.04942,0.63377 0.0743,0.98839 0.0743,1.06331c0.16857,-0.01063 0.41685,-0.06447 0.74433,-0.161c0.04942,-0.05367 0.11898,-0.11284 0.20834,-0.17731c0.06922,-0.02143 0.24794,-0.03224 0.53582,-0.03224c0.54598,0.00018 1.05726,-0.26816 1.53368,-0.80559z" fill="#ffffff" stroke="#ffffff" stroke-width="0.5"/><path d="M208.61531,178.8449v1.12514c0,0.66719 -0.11623,1.61566 -0.36498,2.9849c-0.10228,0.63697 -0.29755,1.29252 -0.57885,1.95041c-0.00465,0.0093 -0.0093,0.01628 -0.01162,0.02557c-0.49981,1.12748 -1.32275,2.11081 -2.44789,2.92213c-1.19954,0.86245 -2.44091,1.2995 -3.69392,1.2995c-0.50678,0 -0.99032,-0.07904 -1.44363,-0.23246c-1.60636,-0.5184 -2.87563,-1.50407 -3.77064,-2.9291c-0.19295,-0.31383 -0.38358,-0.70206 -0.62069,-1.26928c-0.00465,-0.01395 -0.0093,-0.02557 -0.01627,-0.03952c-0.29291,-0.7346 -0.44867,-1.32275 -0.49051,-1.85277c-0.00698,-0.09066 -0.03255,-0.30919 -0.11623,-0.73693c-0.03022,-0.16041 -0.04649,-0.32313 -0.04649,-0.48586v-0.99497c-0.10228,-0.39287 -0.11159,-0.81363 -0.01162,-1.22975c0.0372,-0.16041 0.09067,-0.31616 0.15576,-0.46029c0,-0.28361 0.04882,-0.56722 0.1418,-0.83688c0.02557,-0.11623 0.06044,-0.23015 0.10228,-0.34405c0.00232,-0.00232 0.04416,-0.12089 0.10228,-0.44867c0.06974,-0.40217 0.19992,-0.92057 0.39519,-1.5738c0.00232,-0.00698 0.00465,-0.01628 0.00698,-0.02325c0.37892,-1.21814 1.14375,-2.3735 2.33864,-3.53119c0.0093,-0.0093 0.01627,-0.01627 0.02557,-0.02325c0.60442,-0.57187 1.30182,-0.93452 2.07361,-1.0833c0.13948,-0.02557 0.28129,-0.03952 0.42542,-0.04417c0.08834,-0.00232 0.32312,-0.01627 0.7067,-0.0372c0.01395,0 0.02789,-0.00233 0.04184,-0.00233c1.13212,-0.0465 2.2038,0.19527 3.19644,0.71368c1.14607,0.58582 2.0527,1.46688 2.69664,2.61992c0.30453,0.5463 0.5649,1.20884 0.79736,2.03177c0.27198,0.9322 0.40682,1.75281 0.40682,2.50601z" fill="#f9a83a" stroke="#ffffff" stroke-width="0"/><path d="M206.0608,179.84476c0,0.50449 -0.1095,1.35676 -0.32733,2.55613c-0.06812,0.43636 -0.20436,0.89319 -0.40917,1.37025c-0.31384,0.70907 -0.84855,1.33631 -1.60504,1.88148c-0.75672,0.54517 -1.48951,0.81786 -2.19834,0.81786c-0.23178,0 -0.44311,-0.03394 -0.63398,-0.10206c-1.03617,-0.3271 -1.84032,-0.94735 -2.41293,-1.86101c-0.1095,-0.17692 -0.25248,-0.47706 -0.42963,-0.89971c-0.19087,-0.47706 -0.29641,-0.84507 -0.31687,-1.10429c-0.02046,-0.25876 -0.07161,-0.59957 -0.15344,-1.02222c0,0 -0.28038,-1.19883 0.45008,-3.86548c0.05417,-0.31339 0.16367,-0.74278 0.3271,-1.28818c0.2455,-0.79044 0.80438,-1.60854 1.67689,-2.45408c0.2455,-0.23155 0.51123,-0.37475 0.79765,-0.42939c0.04092,0 0.30664,-0.01371 0.79764,-0.04115c0.68164,-0.02696 1.32212,0.11601 1.92216,0.42962c0.69559,0.35453 1.24051,0.88622 1.63597,1.59506c0.20481,0.36802 0.39545,0.86576 0.57261,1.49276c0.20481,0.69512 0.30687,1.29516 0.30687,1.79941v1.12497zM204.71125,177.6124c-0.08137,-0.19063 -0.17669,-0.43613 -0.28526,-0.73627c-0.13623,-0.61352 -0.54053,-1.17891 -1.21285,-1.69735c-0.67257,-0.51797 -1.29399,-0.74952 -1.86473,-0.69512c-0.25806,0.02743 -0.69303,0.45707 -1.30469,1.28841c-0.29897,0.39545 -0.5977,1.18613 -0.89644,2.37201c-0.27177,1.10429 -0.40103,1.95633 -0.38708,2.55613c0.02696,0.76346 0.06789,1.29516 0.12229,1.59483c0.09485,0.55912 0.29874,1.07034 0.61119,1.53391c0.29897,0.40894 0.53006,0.67466 0.69303,0.79765c0.61119,0.43636 1.18845,0.6542 1.73222,0.6542c0.12205,0 0.2376,-0.01349 0.3464,-0.04092c0.25806,-0.04092 0.56353,-0.21109 0.9169,-0.51123c0.29897,-0.2727 0.52309,-0.5247 0.6728,-0.75672c0.20365,-0.34059 0.39406,-0.85181 0.57074,-1.53367c0.27154,-0.99502 0.40777,-2.05165 0.40777,-3.16965c0.00047,-0.59957 -0.04045,-1.15171 -0.12229,-1.6562z" fill="#ffffff" stroke="#ffffff" stroke-width="0.5"/><path d="M214.93851,174.82117c-0.04939,0.43771 -0.39552,0.64039 -1.03785,0.60858c-0.02967,0.33101 -0.04451,0.82216 -0.04451,1.47344c0.03911,0.52314 0.00489,1.29731 -0.10369,2.32197c-0.05968,0.56622 -0.11886,1.12645 -0.1782,1.68158c-0.12847,0.82253 -0.34612,1.46836 -0.65229,1.93806c-0.08918,0.14961 -0.24985,0.31519 -0.482,0.4966c-0.23248,0.18159 -0.4375,0.29883 -0.61536,0.35227c-0.55382,0.18141 -1.03801,0.2723 -1.45326,0.2723c-0.2571,0 -0.47964,-0.03236 -0.66729,-0.09616c-0.5142,-0.17122 -0.964,-0.48097 -1.34957,-0.93031c-0.2571,-0.2992 -0.44491,-0.58803 -0.5636,-0.86651c-0.13841,-0.32083 -0.23232,-0.91413 -0.28172,-1.78046c-0.03962,-0.99465 -0.1138,-2.48666 -0.22237,-4.47561c0,-0.0747 -0.04451,-0.18159 -0.13353,-0.32083c-0.37579,-0.03217 -0.5931,-0.05326 -0.65245,-0.06435c-0.2571,-0.0747 -0.41035,-0.23503 -0.45975,-0.48115c0.06862,-0.26738 0.23552,-0.45444 0.50105,-0.56132c0.07823,-0.03199 0.28458,-0.06943 0.61856,-0.11234c0.10807,-0.03199 0.27008,-0.06416 0.48621,-0.09615c0.11767,-0.01055 0.32404,-0.01055 0.61873,0c-0.01989,0 0.16471,0 0.55399,0c0.23957,-0.02127 0.50392,0.01618 0.79339,0.11216c0.1396,0.04254 0.20956,0.14923 0.20956,0.32028c0,0.21358 -0.07923,0.36845 -0.2372,0.46443c-0.10891,0.07507 -0.29167,0.12306 -0.5486,0.14415c-0.17803,-0.01055 -0.4004,0.01636 -0.66745,0.08016c-0.06929,0.04272 -0.10369,0.11742 -0.10369,0.22431c0.00978,0.08543 0.01484,0.16559 0.01484,0.23995c-0.01011,0.34192 0.00472,0.82779 0.04451,1.45781c0.02967,0.4488 0.04451,0.72637 0.04451,0.83307v0.99302c0,0.03199 0.00978,0.11216 0.02967,0.24031c0.01973,0.12815 0.02984,0.20286 0.02984,0.22395v1.18534c0.02967,0.08543 0.05934,0.21358 0.08885,0.38426c0.02967,0.4806 0.25946,0.94013 0.68954,1.37766c0.43007,0.43771 0.87246,0.65656 1.32732,0.65656c0.18764,0 0.53376,-0.0747 1.03801,-0.22431c0.19759,-0.06398 0.38051,-0.21885 0.5486,-0.46479c0.16808,-0.24558 0.27177,-0.4806 0.31139,-0.70491c0.04939,-0.09598 0.10874,-0.24576 0.1782,-0.4488c0.08885,-0.53387 0.20248,-1.34548 0.34106,-2.43521c0.09846,-1.21751 0.1133,-2.30725 0.04451,-3.26864c-0.11886,-0.01055 -0.30195,0.01091 -0.54894,0.06398c-0.27683,0.0747 -0.46953,0.11198 -0.57827,0.11198c-0.2571,0 -0.44491,-0.11724 -0.5636,-0.35191c-0.03946,-0.21304 0.06423,-0.373 0.31156,-0.47969c0.06895,-0.02109 0.25204,-0.06398 0.54876,-0.12779c0.01956,0 0.62261,-0.12252 1.80898,-0.36773c0.29672,-0.06398 0.53865,-0.05835 0.7268,0.016c0.05934,0.02145 0.11364,0.08016 0.16303,0.17614c0.04889,0.09634 0.07367,0.16577 0.07367,0.20867z" fill="#ffffff" stroke="#ffffff" stroke-width="0.5"/></g></g></g></svg>